<svg width="324" height="81" xmlns="http://www.w3.org/2000/svg"><path d="M62.327 33.81l-5.8-7.917c3.857-.957 5.597-3.306 5.597-6.641 0-2.175-.783-4.031-2.262-5.278-1.392-1.189-2.929-1.595-5.858-1.595h-6.177V33.81H51.8v-8.207l5.626 8.207zm-4.205-14.442c0 2.262-1.305 3.248-4.379 3.248H51.8v-6.438h1.769c3.77 0 4.553 1.276 4.553 3.19zm9.976 14.442V17.744h-3.857V33.81zm.029-18.386v-3.857H64.27v3.857zm17.545 2.32h-4.35l-3.654 10.643-3.712-10.643h-4.292l6.467 16.066h3.074zm18.154 8.149c0-4.785-3.741-8.526-8.584-8.526-4.669 0-8.497 3.799-8.497 8.41 0 4.64 3.828 8.41 8.526 8.41 4.669 0 8.555-3.77 8.555-8.294zm-3.886-.116c0 2.697-2.088 4.872-4.64 4.872-2.61 0-4.669-2.175-4.669-4.93 0-2.639 2.117-4.814 4.64-4.814 2.581 0 4.669 2.204 4.669 4.872zm9.918 8.033V12.379h-3.857V33.81zm17.4 0V17.744h-3.857v7.569c0 2.146-.174 3.132-.609 3.857-.58.928-1.624 1.479-2.929 1.479-1.856 0-3.045-.783-3.045-5.046v-7.859h-3.857v8.613c0 5.655 2.378 7.83 6.119 7.83 1.943 0 3.161-.493 4.611-1.914v1.537zm14.355 0v-3.451h-7.627l7.076-9.164v-3.451h-10.875v3.451h6.264l-7.076 9.164v3.451zm5.945 0V17.744h-3.857V33.81zm.029-18.386v-3.857h-3.857v3.857zm19.459 10.469c0-4.785-3.741-8.526-8.584-8.526-4.669 0-8.497 3.799-8.497 8.41 0 4.64 3.828 8.41 8.526 8.41 4.669 0 8.555-3.77 8.555-8.294zm-3.886-.116c0 2.697-2.088 4.872-4.64 4.872-2.61 0-4.669-2.175-4.669-4.93 0-2.639 2.117-4.814 4.64-4.814 2.581 0 4.669 2.204 4.669 4.872zm20.329 8.033v-8.613c0-2.871-.29-4.263-1.16-5.51-1.044-1.508-2.784-2.32-5.017-2.32-1.827 0-3.103.551-4.524 1.914v-1.537h-3.567V33.81h3.857v-7.569c0-2.146.145-3.074.638-3.857.609-.957 1.624-1.479 2.842-1.479 1.914 0 3.074.754 3.074 5.046v7.859zm19.401 0V17.744h-3.538v2.146c-1.334-1.769-2.929-2.523-5.249-2.523-4.756 0-8.178 3.567-8.178 8.468 0 4.843 3.393 8.352 8.091 8.352 2.262 0 3.799-.725 5.336-2.465v2.088zm-3.654-7.917c0 2.668-1.74 4.756-4.669 4.756-2.813 0-4.756-1.914-4.756-4.727 0-2.929 1.943-5.017 4.698-5.017 2.755 0 4.727 2.059 4.727 4.988zm18.502 7.917V17.744h-3.857V33.81zm.029-18.386v-3.857h-3.857v3.857zm6.931 18.386V12.379h-3.857V33.81zm17.98-12.557v-3.509h-2.32v-5.365h-3.857v5.365h-1.885v3.509h1.885V33.81h3.857V21.253zm16.24 12.557V17.744h-3.857v7.569c0 2.146-.174 3.132-.609 3.857-.58.928-1.624 1.479-2.929 1.479-1.856 0-3.045-.783-3.045-5.046v-7.859h-3.857v8.613c0 5.655 2.378 7.83 6.119 7.83 1.943 0 3.161-.493 4.611-1.914v1.537zm19.488-7.917c0-4.785-3.741-8.526-8.584-8.526-4.669 0-8.497 3.799-8.497 8.41 0 4.64 3.828 8.41 8.526 8.41 4.669 0 8.555-3.77 8.555-8.294zm-3.886-.116c0 2.697-2.088 4.872-4.64 4.872-2.61 0-4.669-2.175-4.669-4.93 0-2.639 2.117-4.814 4.64-4.814 2.581 0 4.669 2.204 4.669 4.872zM57.745 74.41v-9.28c0-4.814-2.262-7.163-6.496-7.163-2.262 0-3.857.754-5.162 2.494-1.102-1.74-2.523-2.494-4.727-2.494-1.885 0-3.045.522-4.176 1.885v-1.508h-3.538V74.41h3.857v-7.917c0-3.799.899-4.988 3.132-4.988 2.03 0 3.132.928 3.132 4.089v8.816h3.857v-7.917c0-3.828 1.102-4.988 3.248-4.988 1.798 0 3.016.87 3.016 4.089v8.816zm19.546-7.917c0-4.785-3.741-8.526-8.584-8.526-4.669 0-8.497 3.799-8.497 8.41 0 4.64 3.828 8.41 8.526 8.41 4.669 0 8.555-3.77 8.555-8.294zm-3.886-.116c0 2.697-2.088 4.872-4.64 4.872-2.61 0-4.669-2.175-4.669-4.93 0-2.639 2.117-4.814 4.64-4.814 2.581 0 4.669 2.204 4.669 4.872zm22.272 8.033V52.979H91.82v6.786c-1.131-1.247-2.987-2.001-5.017-2.001-4.495 0-8.033 3.77-8.033 8.584 0 4.756 3.509 8.439 8.062 8.439 2.175 0 3.77-.725 5.307-2.465v2.088zm-3.567-8.12c0 2.784-2.059 4.959-4.669 4.959-2.697 0-4.785-2.233-4.785-5.075 0-2.726 2.059-4.872 4.698-4.872 2.697 0 4.756 2.175 4.756 4.988zm22.881.203c0-4.785-3.741-8.526-8.584-8.526-4.669 0-8.497 3.799-8.497 8.41 0 4.64 3.828 8.41 8.526 8.41 4.669 0 8.555-3.77 8.555-8.294zm-3.886-.116c0 2.697-2.088 4.872-4.64 4.872-2.61 0-4.669-2.175-4.669-4.93 0-2.639 2.117-4.814 4.64-4.814 2.581 0 4.669 2.204 4.669 4.872zm30.392 8.033V52.979h-3.857v6.786c-1.131-1.247-2.987-2.001-5.017-2.001-4.495 0-8.033 3.77-8.033 8.584 0 4.756 3.509 8.439 8.062 8.439 2.175 0 3.77-.725 5.307-2.465v2.088zm-3.567-8.12c0 2.784-2.059 4.959-4.669 4.959-2.697 0-4.785-2.233-4.785-5.075 0-2.726 2.059-4.872 4.698-4.872 2.697 0 4.756 2.175 4.756 4.988zm10.353 8.12V58.344h-3.857V74.41zm.029-18.386v-3.857h-3.857v3.857zm25.665 2.32h-4.35l-3.654 10.643-3.712-10.643h-4.292l6.467 16.066h3.074zm5.626 16.066V58.344h-3.857V74.41zm.029-18.386v-3.857h-3.857v3.857zm19.343 18.386V58.344h-3.538v2.146c-1.334-1.769-2.929-2.523-5.249-2.523-4.756 0-8.178 3.567-8.178 8.468 0 4.843 3.393 8.352 8.091 8.352 2.262 0 3.799-.725 5.336-2.465v2.088zm-3.654-7.917c0 2.668-1.74 4.756-4.669 4.756-2.813 0-4.756-1.914-4.756-4.727 0-2.929 1.943-5.017 4.698-5.017 2.755 0 4.727 2.059 4.727 4.988zm22.678 4.872V58.344h-3.683v2.03c-1.189-1.624-2.929-2.407-5.249-2.407-4.553 0-7.917 3.538-7.917 8.294 0 4.959 3.306 8.526 7.888 8.526 2.262 0 3.77-.725 5.278-2.494-.145 3.451-1.624 5.133-4.495 5.133-1.798 0-2.9-.464-4.031-1.711h-4.379c1.305 3.219 4.321 5.104 8.265 5.104 4.988 0 8.323-2.552 8.323-9.454zm-3.857-4.93c0 2.9-1.827 4.814-4.582 4.814s-4.524-1.885-4.524-4.814c0-2.958 1.769-4.93 4.466-4.93 2.755 0 4.64 2.001 4.64 4.93zm22.997 4.93V58.344h-3.683v2.03c-1.189-1.624-2.929-2.407-5.249-2.407-4.553 0-7.917 3.538-7.917 8.294 0 4.959 3.306 8.526 7.888 8.526 2.262 0 3.77-.725 5.278-2.494-.145 3.451-1.624 5.133-4.495 5.133-1.798 0-2.9-.464-4.031-1.711h-4.379c1.305 3.219 4.321 5.104 8.265 5.104 4.988 0 8.323-2.552 8.323-9.454zm-3.857-4.93c0 2.9-1.827 4.814-4.582 4.814s-4.524-1.885-4.524-4.814c0-2.958 1.769-4.93 4.466-4.93 2.755 0 4.64 2.001 4.64 4.93zm10.701 7.975V58.344h-3.857V74.41zm.029-18.386v-3.857h-3.857v3.857zm19.343 18.386V58.344h-3.538v2.146c-1.334-1.769-2.929-2.523-5.249-2.523-4.756 0-8.178 3.567-8.178 8.468 0 4.843 3.393 8.352 8.091 8.352 2.262 0 3.799-.725 5.336-2.465v2.088zm-3.654-7.917c0 2.668-1.74 4.756-4.669 4.756-2.813 0-4.756-1.914-4.756-4.727 0-2.929 1.943-5.017 4.698-5.017 2.755 0 4.727 2.059 4.727 4.988zm13.833-4.814v-3.712h-.29c-1.653 0-2.465.464-3.48 1.943v-1.566h-3.538V74.41h3.857v-8.932c0-2.494 1.131-3.741 3.451-3.799zm18.038 4.93c0-4.988-3.509-8.642-8.294-8.642-4.727 0-8.468 3.741-8.468 8.468 0 4.698 3.799 8.352 8.7 8.352 3.248 0 6.583-1.827 7.656-5.133h-4.205c-.986 1.16-1.943 1.595-3.538 1.595-2.291 0-3.973-1.218-4.437-3.161h12.441c.116-.551.145-.899.145-1.479zm-3.799-1.914h-8.903c.609-2.059 2.175-3.19 4.466-3.19 2.378 0 3.944 1.131 4.437 3.19z" fill="#fff"/></svg>